<svg
  xmlns="http://www.w3.org/2000/svg"
  width="100"
  height="100"
  viewBox="0 0 1024 1024"
>
  <path
    d="M890.0923072 357.9623936h-252.06153813s107.07013973-335.35387307-145.07541867-336.16607253c-77.71897387-0.25206187-111.49522027 71.8655456-111.49522027 71.8655456C374.71048213 395.82763733 161.91453013 385.94122347 161.91453013 385.94122347H105.9008544c-88.13751787 0.30807573-84.02051307 76.4026528-84.020512 76.40265386S21.65628693 822.2877536 21.8803424 916.13866667c0.196048 88.52961387 82.98426027 85.08477227 82.9842592 85.08477226s497.70951147 0.50412267 636.20332267 0c117.7407456-0.44810987 138.29776427-85.08477227 138.29776426-85.08477226s57.63807147-190.250448 110.65501547-368.71001707C1047.5187424 353.8733952 890.0923072 357.9623936 890.0923072 357.9623936z"
    fill="#ffffff"
  ></path>
  <path
    d="M889.81223893 358.29847573h-251.921504s107.01412693-335.52191467-144.9913984-336.36212053c-77.69096747-0.25206187-111.4392064 71.92155947-111.4392064 71.92155947-6.749648 302.33381227-219.43357227 292.4473984-219.43357333 292.4473984H106.04088853c-88.10951147 0.30807573-83.9644992 76.43066027-83.9644992 76.4306592s-0.2240544 360.13992427 0 454.0188448c0.196048 88.55762027 82.9282464 85.14078613 82.9282464 85.14078613s497.4574496 0.50412267 635.8672416 0c117.68473173-0.44810987 138.2417504-85.14078613 138.2417504-85.14078613s57.61006507-190.33446827 110.57099414-368.90606507c57.47003093-193.63927573-99.87238293-189.55027733-99.87238294-189.55027627zM77.89401707 895.69367573V486.7938464S77.13783253 441.9829056 122.73296427 441.9829056c14.78761067 0 51.6166016 4.20102613 95.2512544-2.35257387V946.10598293h-84.02051307S77.89401707 953.3317472 77.89401707 895.69367573z m862.77863893-392.09572693c-22.15340907 89.7339072-112.0553568 380.89299093-112.0553568 380.89299093s-18.0083968 61.6150432-106.45398933 61.6150432H273.9978944V425.03876907c77.94302933-29.96731627 157.56646827-107.26618773 168.06903253-302.33381227 0 0 55.00542933-103.06516267 140.06219414 5.60136747 53.80113493 68.72877973-28.00683733 285.669744-28.00683734 285.669744h324.93533014c-0.0280064 0 83.7684512-0.11202773 61.61504213 89.62188053z"
    fill="#b2b2b2"
  ></path>
</svg>