<svg width="42" height="42" viewBox="0 0 42 42" fill="none" xmlns="http://www.w3.org/2000/svg">
<g id="Frame" clip-path="url(#clip0_1_56)">
<path id="Vector" d="M20.651 40.997C31.695 41.1897 40.8042 32.3931 40.997 21.349C41.1897 10.305 32.3931 1.19582 21.349 1.00305C10.305 0.810273 1.19582 9.60694 1.00304 20.651C0.810271 31.695 9.60694 40.8042 20.651 40.997Z" fill="#FFCC4D"/>
<path id="Vector_2" d="M31.2809 26.3236C31.0863 26.1413 30.7909 26.125 30.576 26.279C30.5321 26.3105 26.1626 29.4247 20.8546 29.3321C15.5598 29.2396 11.2873 25.9746 11.2456 25.9416C11.0362 25.7802 10.7404 25.7883 10.5396 25.9615C10.3399 26.1358 10.2903 26.4284 10.423 26.6574C10.5621 26.8987 13.8952 32.5444 20.7964 32.6649C27.6976 32.7853 31.2268 27.2594 31.3731 27.0231C31.5138 26.7977 31.4755 26.5048 31.2809 26.3236ZM29.8681 22.2661C29.4027 22.2579 28.9745 21.956 28.8282 21.4878C28.6143 20.8184 27.7411 18.8951 26.5935 18.8751C25.4137 18.8545 24.4595 20.8681 24.2689 21.4082C24.0644 21.9859 23.4356 22.2916 22.8513 22.0858C22.2737 21.8824 21.9692 21.2481 22.1737 20.6682C22.321 20.2529 23.6938 16.6019 26.6323 16.6532C29.5707 16.7045 30.8153 20.4012 30.9468 20.8225C31.1311 21.408 30.8057 22.0324 30.2202 22.2155C30.1029 22.2513 29.9837 22.2681 29.8681 22.2661ZM18.7587 22.0722C18.2932 22.064 17.8651 21.7621 17.7177 21.2939C17.5038 20.6245 16.6328 18.7012 15.4841 18.6812C14.3043 18.6606 13.3512 20.6742 13.1606 21.2143C12.9561 21.792 12.3251 22.0977 11.743 21.8919C11.1643 21.6884 10.8608 21.0542 11.0654 20.4743C11.2116 20.059 12.5844 16.408 15.5229 16.4593C18.4613 16.5106 19.7059 20.2073 19.8385 20.6286C20.0228 21.2141 19.6974 21.8385 19.1119 22.0216C18.9935 22.0574 18.8743 22.0742 18.7587 22.0722Z" fill="#664500"/>
<path id="Vector_3" d="M38.0463 10.5359C38.0463 10.5359 27.9981 10.5394 21.1847 10.4205C16.8464 10.3448 4.29397 9.99454 4.29397 9.99454L3.69818 10.9576C7.04279 13.0785 13.7112 14.374 21.1134 14.5032C28.4412 14.6311 35.1048 13.5917 38.5573 11.6294L38.6449 11.5787C38.6449 11.5787 38.2423 10.8338 38.0463 10.5359Z" fill="#FFAC33"/>
<path id="Vector_4" d="M27.7603 1.49835C26.4156 1.37042 25.016 1.27375 23.5724 1.21411C22.8383 1.18351 22.0975 1.15947 21.3465 1.14636C20.6 1.13333 19.8621 1.13156 19.132 1.13549C17.6849 1.14468 16.2816 1.19242 14.9322 1.27332C7.26746 1.73518 1.49231 3.3802 1.43732 6.53083C1.36774 10.5169 10.5062 13.1023 21.1346 13.2878C31.763 13.4734 40.9862 11.2084 41.0557 7.22237C41.1107 4.07285 35.3998 2.22846 27.7603 1.49835ZM21.2059 9.20513C13.5837 9.07209 6.87977 8.02937 6.91668 5.91525C6.92707 5.31979 7.48532 4.78834 8.43233 4.33146C9.72451 3.70836 11.761 3.22939 14.2232 2.93342C16.3513 2.67942 18.7838 2.55741 21.3211 2.6017C23.8663 2.64612 26.3008 2.85309 28.4232 3.18462C30.9079 3.57249 32.9473 4.13372 34.2089 4.81584C35.0973 5.29587 35.6114 5.83381 35.6012 6.41594C35.5643 8.53006 28.8281 9.33818 21.2059 9.20513Z" fill="#5DADEC"/>
<path id="Vector_5" d="M28.4231 3.18573C30.9079 3.5736 32.9473 4.13483 34.2089 4.81695L34.2774 4.83704C31.7714 2.93301 29.2501 1.90441 27.7603 1.49835C26.4156 1.37042 25.016 1.27375 23.5724 1.2141L23.5922 1.22223L28.4231 3.18573ZM8.4323 4.33257C9.72449 3.70947 11.7609 3.23049 14.2231 2.93453L19.1062 1.14393L19.132 1.13548C17.6849 1.14468 16.2816 1.19242 14.9322 1.27332C13.4292 1.62714 10.8724 2.566 8.3003 4.3825L8.4323 4.33257Z" fill="#3B94D9"/>
<path id="Vector_6" d="M32.9174 4.95555C32.1928 4.4506 31.4397 3.91849 30.7188 3.51696C27.941 1.96824 24.7519 1.06245 21.349 1.00305C18.0951 0.946253 15.0087 1.67027 12.2683 3.00154C11.0478 3.59477 10.1593 4.0749 9.82979 4.55255L32.9174 4.95555Z" fill="#FFCC4D"/>
</g>
<defs>
<clipPath id="clip0_1_56">
<rect width="40" height="40" fill="white" transform="translate(1.35209 0.653999) rotate(1)"/>
</clipPath>
</defs>
</svg>
