<svg width="62" height="64" viewBox="0 0 62 64" fill="none" xmlns="http://www.w3.org/2000/svg">
<g id="&#240;&#159;&#166;&#134; icon &#34;message writing&#34;">
<g id="Group">
<path id="Vector" fill-rule="evenodd" clip-rule="evenodd" d="M52.295 2C56.2632 2 59.48 5.21683 59.48 9.185V45.11C59.48 49.0782 56.2632 52.295 52.295 52.295L41.5211 52.2914L33.2803 60.5322C31.9852 61.8273 29.9475 61.9269 28.5382 60.8311L28.1997 60.5322L19.9589 52.2914L9.185 52.295C5.21683 52.295 2 49.0782 2 45.11V9.185C2 5.21683 5.21683 2 9.185 2H52.295Z" stroke="#FF6699" stroke-width="3.5925" stroke-linecap="round" stroke-linejoin="round"/>
<path id="Vector_2" fill-rule="evenodd" clip-rule="evenodd" d="M30.7358 30.74C32.5321 30.74 34.3283 28.9438 34.3283 27.1475C34.3283 25.3513 32.5321 23.555 30.7358 23.555C28.9396 23.555 27.1475 25.3513 27.1475 27.1475C27.1475 28.9438 28.9396 30.74 30.7358 30.74ZM16.3658 30.74C18.1621 30.74 19.9583 28.9438 19.9583 27.1475C19.9583 25.3513 18.1621 23.555 16.3658 23.555C14.5696 23.555 12.7775 25.3513 12.7775 27.1475C12.7775 28.9438 14.5696 30.74 16.3658 30.74ZM45.1058 30.74C46.9021 30.74 48.6983 28.9438 48.6983 27.1475C48.6983 25.3513 46.9021 23.555 45.1058 23.555C43.3096 23.555 41.5175 25.3513 41.5175 27.1475C41.5175 28.9438 43.3096 30.74 45.1058 30.74Z" fill="#FF6699"/>
</g>
</g>
</svg>
