<svg width="62" height="62" viewBox="0 0 62 62" fill="none" xmlns="http://www.w3.org/2000/svg">
<g id="&#240;&#159;&#166;&#134; icon &#34;globe&#34;">
<g id="Group">
<path id="Vector" fill-rule="evenodd" clip-rule="evenodd" d="M30.74 59.48C46.6835 59.48 59.48 46.8118 59.48 30.8683C59.48 14.9248 46.6835 2 30.74 2C14.7965 2 2 14.9248 2 30.8683C2 46.8118 14.7965 59.48 30.74 59.48Z" stroke="black" stroke-width="3.5925" stroke-linecap="round" stroke-linejoin="round"/>
<path id="Vector_2" d="M5.5925 19.9625H55.8875" stroke="black" stroke-width="3.5925" stroke-linecap="round" stroke-linejoin="round"/>
<path id="Vector_3" d="M5.5925 41.5175H55.8875" stroke="black" stroke-width="3.5925" stroke-linecap="round" stroke-linejoin="round"/>
<path id="Vector_4" fill-rule="evenodd" clip-rule="evenodd" d="M30.74 59.48C38.7118 59.48 45.11 46.8118 45.11 30.8683C45.11 14.9248 38.7118 2 30.74 2C22.7682 2 16.37 14.9248 16.37 30.8683C16.37 46.8118 22.7682 59.48 30.74 59.48Z" stroke="black" stroke-width="3.5925" stroke-linecap="round" stroke-linejoin="round"/>
</g>
</g>
</svg>
