<svg width="62" height="58" viewBox="0 0 62 58" fill="none" xmlns="http://www.w3.org/2000/svg">
<g id="&#240;&#159;&#166;&#134; icon &#34;user add&#34;">
<g id="Group">
<path id="Vector" fill-rule="evenodd" clip-rule="evenodd" d="M27.1475 2C33.0997 2 37.925 6.82525 37.925 12.7775V19.9625C37.925 25.9147 33.0997 30.74 27.1475 30.74C21.1952 30.74 16.37 25.9147 16.37 19.9625V12.7775C16.37 6.82525 21.1952 2 27.1475 2Z" stroke="black" stroke-width="3.5925" stroke-linecap="round" stroke-linejoin="round"/>
<path id="Vector_2" d="M52.295 9.185V23.555" stroke="black" stroke-width="3.5925" stroke-linecap="round" stroke-linejoin="round"/>
<path id="Vector_3" d="M59.48 16.37H45.11" stroke="black" stroke-width="3.5925" stroke-linecap="round" stroke-linejoin="round"/>
<path id="Vector_4" fill-rule="evenodd" clip-rule="evenodd" d="M52.295 52.295V49.679C52.295 38.2319 39.052 30.74 27.1475 30.74C15.243 30.74 2 38.2319 2 49.679V52.295C2 54.2791 3.60842 55.8875 5.5925 55.8875H48.7025C50.6866 55.8875 52.295 54.2791 52.295 52.295Z" stroke="black" stroke-width="3.5925" stroke-linecap="round" stroke-linejoin="round"/>
</g>
</g>
</svg>
