<svg width="62" height="52" viewBox="0 0 62 52" fill="none" xmlns="http://www.w3.org/2000/svg">
<g id="&#240;&#159;&#166;&#134; icon &#34;users&#34;">
<g id="Group">
<path id="Vector" fill-rule="evenodd" clip-rule="evenodd" d="M24.3533 2C29.6442 2 33.9333 6.28911 33.9333 11.58V14.7733C33.9333 20.0642 29.6442 24.3533 24.3533 24.3533C19.0624 24.3533 14.7733 20.0642 14.7733 14.7733V11.58C14.7733 6.28911 19.0624 2 24.3533 2ZM46.7067 46.7067C46.7067 45.9316 46.7067 45.1565 46.7067 44.3814C46.7067 34.2061 34.9351 27.5467 24.3533 27.5467C13.7716 27.5467 2 34.2061 2 44.3814V46.7067C2 48.4703 3.4297 49.9 5.19333 49.9H43.5133C45.277 49.9 46.7067 48.4703 46.7067 46.7067Z" stroke="#FF6699" stroke-width="3.19333" stroke-linecap="round" stroke-linejoin="round"/>
<path id="Vector_2" fill-rule="evenodd" clip-rule="evenodd" d="M37.1903 2.56787C40.8779 3.90081 43.5133 7.43263 43.5133 11.58V14.7733C43.5133 18.9153 40.8847 22.4434 37.2046 23.7803C39.3058 21.2284 40.3549 17.693 40.3518 13.1741C40.3488 8.65517 39.2949 5.11977 37.1903 2.56787ZM53.0933 49.9H56.2867C58.0503 49.9 59.48 48.4703 59.48 46.7067C59.48 45.9316 59.48 45.1565 59.48 44.3814C59.48 37.4522 54.0212 32.1535 47.1966 29.4779C47.1966 29.4779 56.2867 37.1267 53.0933 49.9Z" fill="#FF6699" stroke="#FF6699" stroke-width="3.19333" stroke-linecap="round" stroke-linejoin="round"/>
</g>
</g>
</svg>
