<svg width="44" height="44" viewBox="0 0 44 44" fill="none" xmlns="http://www.w3.org/2000/svg">
<g id="Frame" clip-path="url(#clip0_1_68)">
<path id="Vector" d="M36.863 8.61727C44.2535 16.8253 43.5907 29.4724 35.3827 36.863C27.1746 44.2535 14.5286 43.5908 7.13699 35.3827C-0.253566 27.1746 0.40924 14.5275 8.61728 7.13698C16.8253 -0.253573 29.4713 0.409175 36.863 8.61727Z" fill="#FFCB4C"/>
<path id="Vector_2" d="M23.3447 23.4946C19.2646 27.1684 16.13 29.1292 12.1942 31.4931C11.2968 32.0347 9.94271 33.5214 11.9709 35.7751C16.0263 40.2791 26.2717 41.2499 33.4837 34.7563C40.6968 28.2615 40.8033 17.9719 36.7457 13.4667C34.7175 11.213 33.0962 12.4054 32.4649 13.2424C29.7049 16.9063 27.426 19.8199 23.3447 23.4946Z" fill="#65471B"/>
<path id="Vector_3" d="M14.2235 33.7458C14.2235 33.7458 18.6165 31.8297 25.3731 25.745C32.1307 19.6614 34.4943 15.4939 34.4943 15.4939C34.4943 15.4939 36.2971 22.0272 28.4148 29.1244C20.5325 36.2227 14.2235 33.7458 14.2235 33.7458Z" fill="white"/>
<path id="Vector_4" d="M10.7775 29.4607C10.5264 29.6867 10.1758 29.7963 9.819 29.7253C9.21659 29.607 8.82437 29.0234 8.94383 28.4211C8.98181 28.2272 9.75743 24.4248 12.4244 20.9018C9.4587 21.7177 7.16986 23.7373 7.14067 23.7636C6.6842 24.1725 5.98189 24.1346 5.57189 23.6781C5.16182 23.2227 5.19858 22.5214 5.65399 22.1113C5.83616 21.9473 10.184 18.0896 15.2915 18.3572C15.7408 18.3808 16.1306 18.6716 16.2808 19.0956C16.4311 19.5196 16.3106 19.9917 15.9767 20.2924C12.1675 23.7222 11.1326 28.7995 11.1222 28.849C11.0748 29.0957 10.9492 29.3061 10.7775 29.4607ZM30.5918 11.6177C30.4202 11.7722 30.1989 11.8752 29.9507 11.8978C29.8982 11.9029 24.7207 12.4193 20.9314 15.8312C20.5974 16.1319 20.1153 16.2023 19.7093 16.0086C19.3033 15.8148 19.0549 15.3968 19.0784 14.9474C19.3462 9.83889 23.6372 5.9192 23.8194 5.75518C24.2748 5.34512 24.976 5.38187 25.3861 5.83729C25.7973 6.29166 25.7616 6.99519 25.3072 7.40531C25.2769 7.43265 23.0291 9.49673 21.9077 12.3608C25.6902 10.0768 29.5517 9.70282 29.7485 9.68532C30.3588 9.63052 30.8983 10.0794 30.9541 10.6909C30.9897 11.0533 30.844 11.3917 30.5918 11.6177Z" fill="#65471B"/>
<path id="Vector_5" d="M35.7728 16.1072C38.7948 16.6372 41.6745 14.6162 42.2035 11.5931C42.7335 8.57114 40.7136 5.69149 37.6905 5.16143C34.6685 4.63255 25.9802 7.62193 25.7882 8.71672C25.5962 9.81039 32.7509 15.5761 35.7728 16.1072ZM14.8189 34.9742C15.0301 38.035 12.7192 40.6877 9.65739 40.8977C6.59658 41.1089 3.94383 38.7991 3.73268 35.7372C3.52153 32.6753 7.40383 24.3471 8.51268 24.2706C9.62037 24.1951 14.6066 31.9133 14.8189 34.9742Z" fill="#64AADD"/>
</g>
<defs>
<clipPath id="clip0_1_68">
<rect width="40" height="40" fill="white" transform="translate(3.07413 0.98069) rotate(3)"/>
</clipPath>
</defs>
</svg>
