<svg width="48" height="48" viewBox="0 0 48 48" fill="none" xmlns="http://www.w3.org/2000/svg">
<g id="Frame" clip-path="url(#clip0_1_40)">
<path id="Vector" d="M42.5117 27.5032C42.6183 26.9546 42.5875 26.4144 42.4592 25.9038C41.9137 20.9012 34.9994 19.9148 25.3042 17.7914C23.6832 17.4367 24.9884 15.6949 26.3804 11.585C27.286 8.912 26.3352 4.35237 23.3598 3.77401C18.4538 2.82038 22.421 7.60754 16.2232 16.3342C12.9115 20.9968 8.28745 17.1256 7.2891 22.2617L5.01656 33.9529C4.62795 35.9521 4.45071 37.9121 7.20105 38.775C9.86712 39.6113 8.87656 41.4346 12.8085 42.1989L32.4891 46.0244C34.4938 46.4141 36.4415 45.0994 36.8312 43.0947C36.9928 42.2636 36.8487 41.45 36.4977 40.7457C37.7313 40.3391 38.7233 39.3118 38.9883 37.9484C39.1495 37.1195 39.0065 36.3061 38.6564 35.6031C39.893 35.1983 40.8875 34.1702 41.1529 32.8047C41.3456 31.8133 41.1189 30.8365 40.6 30.0531C41.5552 29.5472 42.2899 28.6441 42.5117 27.5032Z" fill="#FFDB5E"/>
<path id="Vector_2" d="M28.7865 28.608L38.1708 30.4321C39.447 30.6802 40.7773 30.2302 41.643 29.2586C41.9993 28.8581 41.9637 28.2434 41.5623 27.8858C41.1621 27.5284 40.5469 27.5662 40.1895 27.9664C39.7793 28.4289 39.1461 28.6408 38.5408 28.5232L28.9317 26.6554C27.9795 26.4703 27.3557 25.5454 27.5408 24.5932C27.7259 23.641 28.6508 23.0171 29.603 23.2022L36.0239 24.4503C36.5507 24.5527 37.0614 24.2083 37.1638 23.6815C37.2662 23.1547 36.9217 22.644 36.3949 22.5416L29.9729 21.2933C27.9682 20.9036 26.0206 22.2172 25.631 24.2219C25.4136 25.3399 25.7394 26.4299 26.4059 27.2522C25.6068 27.7816 25.011 28.6166 24.8143 29.6288C24.5963 30.75 24.9248 31.8439 25.5958 32.6659C24.8013 33.1952 24.2105 34.0277 24.0142 35.0377C23.7767 36.2593 24.177 37.4554 24.9758 38.2955C24.2794 38.8268 23.759 39.5939 23.5792 40.5188C23.1896 42.5235 24.5032 44.471 26.5079 44.8607L32.4893 46.0234C33.7654 46.2714 35.0966 45.8227 35.9623 44.8512C36.3197 44.4509 36.2841 43.8361 35.8838 43.4788C35.4821 43.1233 34.8677 43.1567 34.5114 43.5572C34.099 44.0192 33.4656 44.2323 32.8603 44.1146L26.8789 42.952C25.9267 42.7669 25.3029 41.842 25.488 40.8898C25.673 39.9376 26.598 39.3137 27.5501 39.4988L34.6462 40.8782C35.9223 41.1262 37.2548 40.6766 38.1195 39.7049C38.4771 39.3035 38.4415 38.6888 38.041 38.3325C37.6372 37.9699 37.0238 38.0102 36.6686 38.4109C36.2501 38.8808 35.6324 39.089 35.0172 38.9694L27.3136 37.472C26.3615 37.2869 25.7378 36.3609 25.9229 35.4087C26.108 34.4566 27.0329 33.8327 27.9851 34.0178L36.8099 35.7332C38.086 35.9812 39.4172 35.5325 40.2829 34.561C40.6403 34.1607 40.6047 33.5459 40.2045 33.1886C39.8018 32.8318 39.1884 32.8665 38.8321 33.267C38.4138 33.7358 37.7961 33.944 37.1809 33.8244L28.115 32.0622C27.1629 31.8771 26.539 30.9522 26.7241 30C26.9092 29.0478 27.8332 28.4227 28.7865 28.608Z" fill="#EE9547"/>
</g>
<defs>
<clipPath id="clip0_1_40">
<rect width="40" height="40" fill="white" transform="translate(8.18364 0.551277) rotate(11)"/>
</clipPath>
</defs>
</svg>
