<svg width="42" height="42" viewBox="0 0 42 42" fill="none" xmlns="http://www.w3.org/2000/svg">
<g id="Frame" clip-path="url(#clip0_1_63)">
<path id="Vector" d="M20.651 40.997C31.695 41.1897 40.8042 32.3931 40.997 21.349C41.1897 10.305 32.3931 1.19582 21.3491 1.00305C10.305 0.810273 1.19582 9.60694 1.00305 20.651C0.810274 31.695 9.60694 40.8042 20.651 40.997Z" fill="#FFCC4D"/>
<path id="Vector_2" d="M18.7983 19.8036C18.3328 19.7955 17.9047 19.4935 17.7573 19.0253C17.5434 18.3559 16.6713 16.4326 15.5237 16.4126C14.3439 16.392 13.3908 18.4057 13.2002 18.9458C12.9957 19.5234 12.3647 19.8291 11.7826 19.6234C11.2039 19.4199 10.9005 18.7845 11.105 18.2058C11.2512 17.7894 12.6251 14.1383 15.5636 14.1896C18.502 14.2409 19.7466 17.9377 19.8793 18.3589C20.0635 18.9445 19.7381 19.5689 19.1526 19.752C19.0342 19.79 18.915 19.8057 18.7983 19.8036ZM29.9077 19.9975C29.4423 19.9894 29.0141 19.6874 28.8678 19.2193C28.6539 18.5499 27.7807 16.6266 26.6331 16.6065C25.4533 16.5859 24.4991 18.5996 24.3085 19.1397C24.104 19.7173 23.4752 20.023 22.8909 19.8173C22.3133 19.6138 22.0088 18.9784 22.2133 18.3997C22.3595 17.9833 23.7335 14.3322 26.6708 14.3835C29.6081 14.4348 30.8538 18.1315 30.9853 18.5528C31.1696 19.1383 30.8442 19.7627 30.2587 19.9459C30.1425 19.9838 30.0244 19.9996 29.9077 19.9975ZM31.3185 24.1706C31.1238 23.9883 30.8285 23.972 30.6136 24.126C30.5697 24.1575 26.2002 27.2717 20.8921 27.1791C15.5974 27.0866 11.3248 23.8216 11.2832 23.7886C11.0738 23.6272 10.778 23.6353 10.5772 23.8085C10.3774 23.9828 10.3279 24.2754 10.4606 24.5044C10.5997 24.7457 13.9328 30.3914 20.834 30.5119C27.7351 30.6323 31.2643 25.1064 31.4107 24.8701C31.5513 24.6447 31.5131 24.3529 31.3185 24.1706Z" fill="#664500"/>
<path id="Vector_3" d="M24.8597 5.45055C24.8551 5.71717 24.8839 5.97549 24.9373 6.22535C25.3582 9.16981 28.5692 12.3241 30.894 13.2159C32.7555 12.5761 35.2147 10.5398 36.4234 8.26835C34.15 5.51714 31.1535 3.3823 27.7188 2.15772C26.1229 2.41546 24.8889 3.77747 24.8597 5.45055ZM16.0559 33.2245C16.1239 32.9567 16.1655 32.6774 16.1705 32.3886C16.2061 30.3522 14.584 28.6725 12.5477 28.637C11.3112 28.6154 10.2107 29.2063 9.52451 30.1278C8.87199 29.184 7.79171 28.554 6.55523 28.5324C5.17655 28.5083 3.97448 29.253 3.32279 30.3629C5.28525 34.0588 8.37315 37.071 12.139 38.9336C13.9838 37.4645 15.6815 35.3205 16.0559 33.2245ZM38.9613 29.8059C38.6664 28.7451 37.7134 27.9539 36.5558 27.9337C35.6993 27.9187 34.9365 28.3277 34.4619 28.9662C34.0099 28.3115 33.2619 27.8762 32.4053 27.8612C30.9944 27.8366 29.8313 28.9598 29.8067 30.3707C29.8032 30.5707 29.8254 30.7644 29.8654 30.9518C30.1696 33.0741 32.3984 35.3256 34.1197 36.0946C36.1237 34.3515 37.7779 32.2167 38.9613 29.8059Z" fill="#FFAC33"/>
<path id="Vector_4" d="M38.6441 4.93771C38.6769 3.058 37.1793 1.50829 35.3007 1.4755C34.1598 1.45559 33.1434 2.00126 32.5107 2.85146C31.9081 1.9797 30.9114 1.39888 29.7704 1.37897C27.8907 1.34616 26.341 2.84267 26.3082 4.72239C26.3036 4.98901 26.3324 5.24733 26.3858 5.49719C26.8078 8.44167 30.0177 11.596 32.3425 12.4878C34.697 11.6776 38.015 8.6373 38.5384 5.71043C38.6016 5.4615 38.6395 5.20434 38.6441 4.93771ZM14.3636 32.4504C14.3991 30.414 12.7771 28.7343 10.7407 28.6988C9.50426 28.6772 8.40378 29.2681 7.7176 30.1896C7.0651 29.2447 5.9848 28.6158 4.74832 28.5942C2.71196 28.5587 1.03229 30.1807 0.996744 32.2171C0.991702 32.5059 1.0235 32.7854 1.081 33.0564C1.53762 36.246 5.01517 39.6639 7.53424 40.6302C10.0855 39.7535 13.6802 36.4591 14.2479 33.2874C14.317 33.0174 14.3586 32.7381 14.3636 32.4504ZM40.7816 30.3767C40.8062 28.9658 39.683 27.8027 38.2721 27.778C37.4156 27.7631 36.6528 28.1721 36.1782 28.8105C35.7262 28.1559 34.9782 27.7205 34.1216 27.7056C32.7107 27.681 31.5476 28.8042 31.523 30.2151C31.5195 30.415 31.5417 30.6088 31.5818 30.7962C31.8977 33.0054 34.3067 35.3733 36.052 36.0417C37.8184 35.4346 40.3097 33.1522 40.7015 30.9554C40.7492 30.7695 40.7781 30.5766 40.7816 30.3767Z" fill="#DD2E44"/>
</g>
<defs>
<clipPath id="clip0_1_63">
<rect width="40" height="40" fill="white" transform="translate(1.3521 0.653999) rotate(1)"/>
</clipPath>
</defs>
</svg>
