<svg width="58" height="58" viewBox="0 0 58 58" fill="none" xmlns="http://www.w3.org/2000/svg">
<g id="Frame" clip-path="url(#clip0_205_154)">
<path id="Vector" d="M0 29C0 12.9837 12.9837 0 29 0C45.0163 0 58 12.9837 58 29C58 45.0163 45.0163 58 29 58C12.9837 58 0 45.0163 0 29Z" fill="white"/>
<path id="Vector_2" d="M23 38.2169V19.7831C23 19.0021 23.8551 18.5226 24.5214 18.9298L39.6037 28.1467C40.2418 28.5366 40.2418 29.4634 39.6037 29.8533L24.5214 39.0702C23.8551 39.4774 23 38.9979 23 38.2169Z" fill="#9747FF" stroke="#9747FF"/>
<path id="Vector_3" d="M29 56.5C44.1878 56.5 56.5 44.1878 56.5 29C56.5 13.8122 44.1878 1.5 29 1.5C13.8122 1.5 1.5 13.8122 1.5 29C1.5 44.1878 13.8122 56.5 29 56.5Z" stroke="#9747FF" stroke-width="3"/>
</g>
<defs>
<clipPath id="clip0_205_154">
<rect width="58" height="58" fill="white"/>
</clipPath>
</defs>
</svg>
