 
<svg 
xmlns="http://www.w3.org/2000/svg"
width="100"
height="100"
viewBox="0 0 1080 1024">
<path d="M999.168 343.04l-245.020444-62.919111-159.800889-220.216889S575.772444 28.586667 541.070222 28.444444c-34.702222-0.170667-63.914667 31.459556-63.914666 31.459556L328.049778 269.653333s-225.024 67.555556-245.020445 73.415111c-19.996444 5.859556-49.180444 19.484444-53.276444 41.955556-6.997333 38.428444 10.638222 62.919111 10.638222 62.919111l159.800889 188.757333v283.136c0.028444 21.504-2.332444 42.723556 21.304889 62.919112s63.914667 10.496 63.914667 10.496l255.658666-104.874667 245.020445 94.378667c16.981333 6.542222 52.423111 18.488889 74.581333 0 22.158222-18.488889 21.304889-52.451556 21.304889-52.451556V636.700444s116.593778-143.160889 138.496-167.793777c21.902222-24.632889 31.744-41.386667 31.971555-73.415111s-53.276444-52.451556-53.276444-52.451556z" fill="#ffffff"></path>
<path d="M999.196444 343.04l-244.935111-62.919111-159.744-220.216889S575.943111 28.586667 541.269333 28.444444c-34.673778-0.170667-63.886222 31.459556-63.886222 31.459556L328.305778 269.653333s-224.938667 67.555556-244.935111 73.415111c-19.968 5.859556-49.152 19.484444-53.248 41.955556-6.997333 38.428444 10.638222 62.919111 10.638222 62.919111l159.744 188.757333v283.136c0.028444 21.475556-2.332444 42.723556 21.304889 62.919112 23.637333 20.195556 63.886222 10.496 63.886222 10.496l255.573333-104.874667 244.935111 94.378667c16.952889 6.542222 52.394667 18.488889 74.552889 0s21.304889-52.451556 21.304889-52.451556V636.700444s116.536889-143.160889 138.439111-167.793777c21.902222-24.632889 31.744-41.386667 31.943111-73.415111s-53.248-52.451556-53.248-52.451556z m-9.301333 72.248889c-10.752 13.909333-164.920889 199.111111-164.920889 199.111111v301.511111s3.214222 19.456-22.755555 11.377778c-25.969778-8.078222-261.603556-96.711111-261.603556-96.711111l-267.292444 102.4s-17.152 9.671111-17.066667-11.377778c0.113778-21.048889 0-307.2 0-307.2l-164.920889-193.422222s-17.265778-14.592 5.688889-22.755556c22.954667-8.163556 267.292444-85.333333 267.292444-85.333333l159.232-221.866667s16.128-15.758222 28.444445 0c12.316444 15.758222 164.920889 233.244444 164.920889 233.244445l267.292444 73.955555s16.412444 3.157333 5.688889 17.066667z" fill="#b2b2b2"></path>
</svg>
 