<svg width="46" height="46" viewBox="0 0 46 46" fill="none" xmlns="http://www.w3.org/2000/svg">
    <g id="Frame" clip-path="url(#clip0_1_43)">
        <path id="Vector"
            d="M41.6882 25.3887C41.6201 25.9434 41.4238 26.4477 41.1441 26.8936C39.0794 31.4828 32.1986 30.2842 22.3218 29.3077C20.6705 29.1441 21.3736 31.2041 21.4274 35.543C21.4627 38.365 19.1494 42.4076 16.1409 42.0382C11.1804 41.4291 16.4328 38.1022 13.2349 27.8875C11.5262 22.4297 5.93217 24.6825 6.56982 19.4893L8.02115 7.66915C8.26935 5.64767 8.70646 3.72886 11.5888 3.75813C14.383 3.78552 14.0044 1.74528 17.9801 2.23343L37.8795 4.67678C39.9065 4.92566 41.3527 6.77793 41.1038 8.80493C41.0006 9.64529 40.6122 10.3745 40.0607 10.9359C41.1083 11.7038 41.7343 12.9874 41.5651 14.3659C41.4621 15.2041 41.0748 15.9334 40.5246 16.4939C41.5756 17.261 42.2037 18.546 42.0342 19.9268C41.9111 20.9292 41.3937 21.7882 40.658 22.3729C41.4102 23.1492 41.8298 24.2351 41.6882 25.3887Z"
            fill="#FFDB5E" />
        <path id="Vector_2"
            d="M28.9761 20.0967L38.4649 21.2617C39.7552 21.4202 40.8813 22.2592 41.4045 23.4507C41.6196 23.9417 41.3958 24.5154 40.9035 24.7315C40.4124 24.9477 39.839 24.7217 39.6228 24.2305C39.3756 23.664 38.8389 23.2667 38.2268 23.1916L28.5109 21.9986C27.5481 21.8804 26.669 22.5672 26.5508 23.53C26.4325 24.4928 27.1194 25.3719 28.0822 25.4901L34.5745 26.2873C35.1072 26.3527 35.4864 26.8381 35.421 27.3708C35.3556 27.9034 34.8702 28.2827 34.3376 28.2173L27.8441 27.42C25.8171 27.1711 24.3708 25.3199 24.6197 23.2929C24.7585 22.1625 25.4052 21.2266 26.2931 20.6505C25.6968 19.9 25.3881 18.9218 25.5138 17.8983C25.653 16.7646 26.3034 15.8258 27.1956 15.2513C26.6036 14.5025 26.2989 13.5281 26.4243 12.5069C26.576 11.2717 27.3262 10.2578 28.3456 9.7057C27.8474 8.98518 27.5896 8.0949 27.7044 7.1597C27.9533 5.1327 29.8044 3.68641 31.8314 3.93529L37.8794 4.67788C39.1697 4.83631 40.297 5.6744 40.8202 6.86592C41.0364 7.35704 40.8126 7.93071 40.3215 8.14691C39.8295 8.36078 39.2556 8.13918 39.0405 7.64819C38.791 7.08135 38.2545 6.68299 37.6424 6.60783L31.5945 5.86524C30.6317 5.74703 29.7526 6.4339 29.6343 7.39667C29.5161 8.35944 30.203 9.23859 31.1658 9.3568L38.3408 10.2378C39.6311 10.3962 40.7594 11.2355 41.2815 12.4269C41.4975 12.9191 41.2737 13.4928 40.7827 13.7079C40.2867 13.928 39.7157 13.7 39.5017 13.2092C39.249 12.633 38.7258 12.2441 38.1038 12.1677L30.3145 11.2113C29.3518 11.0931 28.4725 11.7811 28.3543 12.7439C28.236 13.7066 28.9229 14.5858 29.8857 14.704L38.8087 15.7996C40.099 15.958 41.2264 16.7961 41.7495 17.9876C41.9657 18.4788 41.7419 19.0524 41.2508 19.2686C40.7576 19.4835 40.1849 19.2609 39.9698 18.7699C39.7169 18.1948 39.1937 17.8059 38.5717 17.7295L29.405 16.604C28.4422 16.4858 27.5631 17.1727 27.4449 18.1354C27.3266 19.0982 28.0123 19.9783 28.9761 20.0967Z"
            fill="#EE9547" />
    </g>
    <defs>
        <clipPath id="clip0_1_43">
            <rect width="40" height="40" fill="white"
                transform="translate(5.58646 0.711693) rotate(7)" />
        </clipPath>
    </defs>
</svg>