<svg width="15" height="25" viewBox="0 0 15 25" fill="none" xmlns="http://www.w3.org/2000/svg">
<path id="Vector" d="M7.49997 17.1875C9.75935 17.1875 11.5909 15.0889 11.5909 12.5V4.6875C11.5909 2.09863 9.75935 0 7.49997 0C5.2406 0 3.40906 2.09863 3.40906 4.6875V12.5C3.40906 15.0889 5.2406 17.1875 7.49997 17.1875ZM14.3182 9.375H13.6363C13.2596 9.375 12.9545 9.72461 12.9545 10.1562V12.5C12.9545 16.1523 10.2064 19.083 6.95494 18.7197C4.12114 18.4028 2.04543 15.4839 2.04543 12.2217V10.1562C2.04543 9.72461 1.74031 9.375 1.36361 9.375H0.681791C0.305086 9.375 -2.76566e-05 9.72461 -2.76566e-05 10.1562V12.1172C-2.76566e-05 16.4941 2.72597 20.396 6.47725 20.9888V22.6562H4.09088C3.71418 22.6562 3.40906 23.0059 3.40906 23.4375V24.2188C3.40906 24.6504 3.71418 25 4.09088 25H10.9091C11.2858 25 11.5909 24.6504 11.5909 24.2188V23.4375C11.5909 23.0059 11.2858 22.6562 10.9091 22.6562H8.5227V21.0073C12.1751 20.4331 15 16.8408 15 12.5V10.1562C15 9.72461 14.6949 9.375 14.3182 9.375Z" fill="#FEF8F8"/>
</svg>
